<?xml version="1.0" encoding="utf-8"?>
<!-- Generator: Adobe Illustrator 16.0.3, SVG Export Plug-In . SVG Version: 6.00 Build 0)  -->
<!DOCTYPE svg PUBLIC "-//W3C//DTD SVG 1.1//EN" "http://www.w3.org/Graphics/SVG/1.1/DTD/svg11.dtd">
<svg version="1.1" id="Layer_1" xmlns="http://www.w3.org/2000/svg" xmlns:xlink="http://www.w3.org/1999/xlink" x="0px" y="0px"
	 width="512px" height="512px" viewBox="0 0 512 512" enable-background="new 0 0 512 512" xml:space="preserve">
<g id="page_style_2">
	<path fill="#D1D3D4" d="M384.244,128.241h-0.021l0.01-0.01l-127.947-128h-0.053H32.457L32.229,0h-0.002c-17.672,0-32,14.327-32,32
		c0,0.078,0.006,0.154,0.006,0.231v-0.228l0.229,0.231H0.238L0.236,480.229H0v0.002c0,17.672,14.328,32,32,32
		c0.078,0,0.154-0.006,0.232-0.006h-0.229l0.23-0.227v0.232h319.883v0.119h0.002c17.672,0,32-14.328,32-32
		c0-0.037-0.002-0.073-0.002-0.109h0.125L384.244,128.241z M32.234,480.462l-0.23-0.227h0.23V480.462z"/>
	<path fill="#B7B7B7" d="M288.199,128.302h0.229c-0.078,0-0.154,0.006-0.232,0.006c-17.672,0-32-14.328-32-32v-0.002l0.049-0.071
		V0.231h0.053l127.947,128l-0.01,0.01h-95.977L288.199,128.302z"/>
</g>
<g id="icons_copy">
	<rect x="64" y="240.351" fill="#BE1E2D" width="432" height="192"/>
	<path fill="#B7B7B7" d="M192,128.351H64v-32h128V128.351z"/>
	<path fill="#B7B7B7" d="M160,192.351H64v-32h96V192.351z"/>
	<g>
		<path fill="#FFFFFF" d="M122.78,293.071H156.1c19.74,0,35.7,7.279,35.7,29.399c0,21.42-16.38,30.94-35.7,30.94h-12.74v30.939
			H122.78V293.071z M154.84,337.031c11.34,0,16.8-5.04,16.8-14.561c0-9.52-5.88-13.02-16.8-13.02h-11.48v27.58H154.84z"/>
		<path fill="#FFFFFF" d="M207.618,293.071h25.76c27.859,0,45.779,13.859,45.779,45.22c0,31.359-17.92,46.06-44.659,46.06h-26.88
			V293.071z M232.118,367.69c15.539,0,25.899-7.56,25.899-29.399s-10.36-28.561-25.899-28.561h-3.921v57.96H232.118z"/>
		<path fill="#FFFFFF" d="M296.518,293.071h57.539v17.359h-36.959v21.141h31.64v17.359h-31.64v35.42h-20.58V293.071z"/>
	</g>
</g>
</svg>
