<?xml version="1.0" encoding="utf-8"?>
<!-- Generator: Adobe Illustrator 16.0.3, SVG Export Plug-In . SVG Version: 6.00 Build 0)  -->
<!DOCTYPE svg PUBLIC "-//W3C//DTD SVG 1.1//EN" "http://www.w3.org/Graphics/SVG/1.1/DTD/svg11.dtd">
<svg version="1.1" id="Layer_1" xmlns="http://www.w3.org/2000/svg" xmlns:xlink="http://www.w3.org/1999/xlink" x="0px" y="0px"
	 width="512px" height="512px" viewBox="0 0 512 512" enable-background="new 0 0 512 512" xml:space="preserve">
<g id="page_style_2">
	<path fill="#00A0DB" d="M384.244,128.241h-0.021l0.01-0.01l-127.947-128h-0.053H32.456L32.228,0h-0.001c-17.673,0-32,14.327-32,32
		c0,0.078,0.006,0.154,0.006,0.231v-0.228l0.229,0.231H0.238L0.236,480.229H0v0.002c0,17.672,14.328,32,32,32
		c0.078,0,0.154-0.006,0.232-0.006h-0.229l0.229-0.227v0.232h319.884v0.119h0.002c17.672,0,32-14.328,32-32
		c0-0.037-0.002-0.073-0.004-0.109h0.127L384.244,128.241z M32.233,480.462l-0.229-0.227h0.229V480.462z"/>
	<g>
		<path fill="#1C75BC" d="M288.199,128.302h0.229c-0.078,0-0.154,0.006-0.232,0.006c-17.672,0-32-14.328-32-32v-0.002l0.049-0.071
			V0.231h0.053l127.947,128l-0.01,0.01h-95.978L288.199,128.302z"/>
	</g>
</g>
<g id="icons_copy">
	<g>
		<path fill="#FFFFFF" d="M101.849,209.122c-5.455,3.153,57.26,156.755,67.191,173.955c9.934,17.216,25.551,18.482,39.326,10.537
			s20.454-22.109,10.522-39.326C208.956,337.073,107.29,205.971,101.849,209.122z M195.397,379.047
			c-5.088,0-9.213-4.125-9.213-9.212c0-5.088,4.125-9.213,9.213-9.213s9.211,4.125,9.211,9.213
			C204.608,374.922,200.485,379.047,195.397,379.047z"/>
		<path fill="#FFFFFF" d="M88.03,262.871C63.142,290.595,48,328.565,48,371.044c0,5.441,0.245,10.896,0.733,16.223
			c0.678,7.455,6.953,13.084,14.309,13.084c0.445,0,0.879-0.015,1.324-0.058c7.916-0.734,13.746-7.729,13.026-15.646
			c-0.403-4.45-0.604-9.041-0.604-13.604c0-29.178,8.607-55.705,23.247-76.865C96.292,284.663,92.046,273.667,88.03,262.871z"/>
		<path fill="#FFFFFF" d="M191.942,216.104c-13.473,0-26.413,1.929-38.678,5.484c6.866,8.277,13.935,16.971,20.238,24.859
			c5.988-1.007,12.135-1.556,18.439-1.556c64.559,0,115.154,55.418,115.154,126.152c0,4.492-0.201,8.982-0.59,13.344
			c-0.705,7.916,5.139,14.898,13.056,15.617c7.845,0.691,14.912-5.139,15.618-13.055c0.46-5.212,0.705-10.551,0.705-15.906
			C335.886,284.16,272.651,216.104,191.942,216.104z"/>
	</g>
</g>
</svg>
