<?xml version="1.0" encoding="utf-8"?>
<!-- Generator: Adobe Illustrator 16.0.3, SVG Export Plug-In . SVG Version: 6.00 Build 0)  -->
<!DOCTYPE svg PUBLIC "-//W3C//DTD SVG 1.1//EN" "http://www.w3.org/Graphics/SVG/1.1/DTD/svg11.dtd">
<svg version="1.1" id="Layer_1" xmlns="http://www.w3.org/2000/svg" xmlns:xlink="http://www.w3.org/1999/xlink" x="0px" y="0px"
	 width="512px" height="512px" viewBox="0 0 512 512" enable-background="new 0 0 512 512" xml:space="preserve">
<g id="page_style_2">
	<path fill="#00A0DB" d="M384.244,128.241h-0.021l0.01-0.01l-127.947-128h-0.053H32.456L32.228,0h-0.001c-17.673,0-32,14.327-32,32
		c0,0.078,0.006,0.154,0.006,0.231v-0.228l0.229,0.231H0.238L0.236,480.229H0v0.002c0,17.672,14.328,32,32,32
		c0.078,0,0.154-0.006,0.232-0.006h-0.229l0.229-0.227v0.232h319.884v0.119h0.002c17.672,0,32-14.328,32-32
		c0-0.037-0.002-0.073-0.003-0.109h0.126L384.244,128.241z M32.233,480.462l-0.229-0.227h0.229V480.462z"/>
	<g>
		<path fill="#1C75BC" d="M288.199,128.302h0.229c-0.078,0-0.154,0.006-0.232,0.006c-17.672,0-32-14.328-32-32v-0.002l0.049-0.071
			V0.231h0.053l127.947,128l-0.01,0.01h-95.978L288.199,128.302z"/>
	</g>
</g>
<g id="icons_copy">
	<g>
		<path fill="#FFFFFF" d="M295.117,320.2c0-15.951,9.818-28.538,24.582-37.183c-2.68-8.889-6.18-17.428-10.518-25.448
			c-16.59,4.337-30-2.161-41.262-13.425c-11.294-11.278-14.749-24.702-10.411-41.263c-8.021-4.337-16.528-7.883-25.448-10.531
			c-8.646,14.779-24.276,24.596-40.211,24.596c-15.936,0-31.552-9.816-40.211-24.596c-8.919,2.648-17.427,6.194-25.448,10.518
			c4.322,16.574,0.882,29.998-10.396,41.276c-11.278,11.264-24.702,17.762-41.262,13.44c-4.337,8.005-7.869,16.544-10.532,25.433
			c14.778,8.645,24.597,21.231,24.597,37.183c0,15.935-9.818,31.566-24.597,40.226c2.663,8.904,6.194,17.428,10.532,25.448
			c16.576-4.337,29.984-0.883,41.262,10.396c11.279,11.278,14.719,24.688,10.396,41.262c8.021,4.338,16.544,7.883,25.448,10.532
			c8.66-14.794,24.276-24.596,40.211-24.596c15.935,0,31.582,9.817,40.227,24.596c8.918-2.664,17.427-6.194,25.448-10.532
			c-4.338-16.574-0.898-29.983,10.41-41.262c11.263-11.263,24.673-17.762,41.263-13.44c4.337-8.02,7.854-16.544,10.517-25.448
			C304.936,348.722,295.117,336.135,295.117,320.2z M191.849,385.106c-35.837,0-64.889-29.068-64.889-64.906
			c0-35.839,29.051-64.906,64.889-64.906c35.855,0,64.905,29.067,64.905,64.906C256.754,356.038,227.704,385.106,191.849,385.106z"
			/>
		<circle fill="#FFFFFF" cx="191.902" cy="320.729" r="27.921"/>
	</g>
	<polygon fill="#FF8700" points="416,480.351 416,320.351 496,400.472 	"/>
</g>
</svg>
