<?xml version="1.0" encoding="utf-8"?>
<!-- Generator: Adobe Illustrator 16.0.3, SVG Export Plug-In . SVG Version: 6.00 Build 0)  -->
<!DOCTYPE svg PUBLIC "-//W3C//DTD SVG 1.1//EN" "http://www.w3.org/Graphics/SVG/1.1/DTD/svg11.dtd">
<svg version="1.1" id="Layer_1" xmlns="http://www.w3.org/2000/svg" xmlns:xlink="http://www.w3.org/1999/xlink" x="0px" y="0px"
	 width="512px" height="512px" viewBox="0 0 512 512" enable-background="new 0 0 512 512" xml:space="preserve">
<g id="page_style_2">
	<path fill="#00A0DB" d="M384.244,128.242h-0.021l0.01-0.01l-127.947-128h-0.053H32.456L32.228,0h-0.001c-17.673,0-32,14.328-32,32
		c0,0.078,0.006,0.154,0.006,0.232v-0.229l0.229,0.232H0.238L0.236,480.23H0v0.002c0,17.672,14.328,32,32,32
		c0.078,0,0.154-0.006,0.232-0.006h-0.229L32.233,512v0.232h319.884v0.119h0.002c17.672,0,32-14.328,32-32
		c0-0.037-0.002-0.074-0.003-0.109h0.126L384.244,128.242z M32.233,480.463l-0.229-0.227h0.229V480.463z"/>
	<g>
		<path fill="#1C75BC" d="M288.199,128.303h0.229c-0.078,0-0.154,0.006-0.232,0.006c-17.672,0-32-14.328-32-32v-0.002l0.049-0.072
			V0.232h0.053l127.947,128l-0.01,0.01h-95.978L288.199,128.303z"/>
	</g>
</g>
<g id="icons_copy">
	<g>
		<path fill="#FFFFFF" d="M257.042,458.352c31.275,0,56.72-25.444,56.72-56.72s-25.444-56.72-56.72-56.72
			c-17.32,0-32.842,7.812-43.255,20.087l-71.641-35.052c0.639-3.1,0.975-6.309,0.975-9.596c0-3.308-0.342-6.535-0.987-9.652
			l87.417-54.636c7.373,6.4,16.984,10.288,27.491,10.288c23.159,0,42-18.841,42-42s-18.841-42-42-42
			c-12.102,0-23.017,5.151-30.688,13.368L0,67.654v29.873l215.348,121.838c-0.194,1.637-0.306,3.299-0.306,4.986
			c0,3.247,0.383,6.404,1.083,9.442l-86.142,53.839c-8.622-9.017-20.762-14.642-34.222-14.642c-26.155,0-47.359,21.205-47.359,47.36
			s21.204,47.36,47.359,47.36c13.504,0,25.679-5.662,34.307-14.73l71.885,35.172c-1.059,4.323-1.632,8.834-1.632,13.479
			c0,3.881,0.394,7.671,1.14,11.335L13.867,506.764c5.107,3.453,11.266,5.469,17.895,5.469c0.078,0,0.154-0.006,0.232-0.006h-0.229
			L31.995,512v0.232h29.074l151.335-75.668C222.797,449.814,238.936,458.352,257.042,458.352z"/>
	</g>
</g>
</svg>
