<?xml version="1.0" encoding="utf-8"?>
<!-- Generator: Adobe Illustrator 16.0.3, SVG Export Plug-In . SVG Version: 6.00 Build 0)  -->
<!DOCTYPE svg PUBLIC "-//W3C//DTD SVG 1.1//EN" "http://www.w3.org/Graphics/SVG/1.1/DTD/svg11.dtd">
<svg version="1.1" id="Layer_1" xmlns="http://www.w3.org/2000/svg" xmlns:xlink="http://www.w3.org/1999/xlink" x="0px" y="0px"
	 width="512px" height="512px" viewBox="0 0 512 512" enable-background="new 0 0 512 512" xml:space="preserve">
<g id="page_style_2">
	<path fill="#AFAFAF" d="M384.244,128.242h-0.021l0.011-0.01l-127.947-128h-0.053H32.456L32.228,0h-0.001c-17.673,0-32,14.328-32,32
		c0,0.078,0.006,0.154,0.006,0.232v-0.229l0.229,0.232H0.238L0.236,480.23H0v0.002c0,17.672,14.328,32,32,32
		c0.078,0,0.154-0.006,0.232-0.006h-0.229l0.23-0.227v0.232h319.884v0.118h0.002c17.672,0,32-14.327,32-32
		c0-0.036-0.002-0.073-0.003-0.108h0.126L384.244,128.242z M32.233,480.463l-0.229-0.227h0.229V480.463z"/>
	<path fill="#818181" d="M288.199,128.303h0.229c-0.078,0-0.154,0.006-0.232,0.006c-17.672,0-32-14.328-32-32v-0.002l0.049-0.072
		V0.232h0.053l127.947,128l-0.01,0.01h-95.979L288.199,128.303z"/>
</g>
<g>
	<path fill="#FFFFFF" d="M136.901,220.749h122.702v37.2h-78.301v39.3h66.601v36.9h-66.601v45.001h81.301v37.2H136.901V220.749z"/>
</g>
</svg>
