<?xml version="1.0" encoding="utf-8"?>
<!-- Generator: Adobe Illustrator 16.0.3, SVG Export Plug-In . SVG Version: 6.00 Build 0)  -->
<!DOCTYPE svg PUBLIC "-//W3C//DTD SVG 1.1//EN" "http://www.w3.org/Graphics/SVG/1.1/DTD/svg11.dtd">
<svg version="1.1" id="Layer_1" xmlns="http://www.w3.org/2000/svg" xmlns:xlink="http://www.w3.org/1999/xlink" x="0px" y="0px"
	 width="512px" height="512px" viewBox="0 0 512 512" enable-background="new 0 0 512 512" xml:space="preserve">
<g id="page_style_2">
	<path fill="#D1D3D4" d="M384.244,128.241h-0.021l0.01-0.01l-127.947-128h-0.053H32.457L32.229,0h-0.002c-17.672,0-32,14.327-32,32
		c0,0.078,0.006,0.154,0.006,0.231v-0.228l0.229,0.231H0.238L0.236,480.229H0v0.002c0,17.672,14.328,32,32,32
		c0.078,0,0.154-0.006,0.232-0.006h-0.229l0.23-0.227v0.232h319.883v0.119h0.002c17.672,0,32-14.328,32-32
		c0-0.037-0.002-0.073-0.002-0.109h0.125L384.244,128.241z M32.234,480.462l-0.23-0.227h0.23V480.462z"/>
	<path fill="#B7B7B7" d="M288.199,128.302h0.229c-0.078,0-0.154,0.006-0.232,0.006c-17.672,0-32-14.328-32-32v-0.002l0.049-0.071
		V0.231h0.053l127.947,128l-0.01,0.01h-95.977L288.199,128.302z"/>
</g>
<g id="icons_copy">
	<rect x="64" y="240.351" fill="#94B700" width="432" height="192"/>
	<path fill="#B7B7B7" d="M192,128.351H64v-32h128V128.351z"/>
	<path fill="#B7B7B7" d="M160,192.351H64v-32h96V192.351z"/>
	<text transform="matrix(1 0 0 1 112 384.3506)" fill="#FFFFFF" font-family="'SourceSansPro-Bold'" font-size="140">PSV</text>
</g>
</svg>
