<?xml version="1.0" encoding="utf-8"?>
<!-- Generator: Adobe Illustrator 16.0.3, SVG Export Plug-In . SVG Version: 6.00 Build 0)  -->
<!DOCTYPE svg PUBLIC "-//W3C//DTD SVG 1.1//EN" "http://www.w3.org/Graphics/SVG/1.1/DTD/svg11.dtd">
<svg version="1.1" id="Layer_1" xmlns="http://www.w3.org/2000/svg" xmlns:xlink="http://www.w3.org/1999/xlink" x="0px" y="0px"
	 width="512px" height="512px" viewBox="0 0 512 512" enable-background="new 0 0 512 512" xml:space="preserve">
<g id="page_style_2">
	<path fill="#AFAFAF" d="M384.244,128.242h-0.021l0.01-0.01l-127.947-128h-0.053H32.456L32.228,0h-0.001c-17.673,0-32,14.328-32,32
		c0,0.078,0.006,0.154,0.006,0.232v-0.229l0.229,0.232H0.238L0.236,480.23H0v0.002c0,17.672,14.328,32,32,32
		c0.078,0,0.154-0.006,0.232-0.006h-0.229L32.233,512v0.232h319.884v0.119h0.002c17.672,0,32-14.328,32-32
		c0-0.037-0.002-0.074-0.003-0.109h0.126L384.244,128.242z M32.233,480.463l-0.229-0.227h0.229V480.463z"/>
	<path fill="#818181" d="M288.199,128.303h0.229c-0.078,0-0.154,0.006-0.232,0.006c-17.672,0-32-14.328-32-32v-0.002l0.049-0.072
		V0.232h0.053l127.947,128l-0.01,0.01h-95.978L288.199,128.303z"/>
</g>
<g id="icons_copy">
	<g>
		<path fill="#FFFFFF" d="M74.252,220.75h45.301l13.5,91.501c2.399,20.399,5.399,41.1,7.8,61.8h1.2c3.899-20.7,7.8-41.4,11.7-61.8
			l21-91.501h37.5l21.001,91.501c3.899,19.8,7.8,40.8,11.699,61.8h1.2c2.7-21,5.4-41.7,8.101-61.8l13.5-91.501h42.301
			l-34.801,195.602h-55.501l-19.2-88.801c-3.3-15-5.699-30.9-7.8-45.301h-1.2c-2.399,14.4-4.8,30.301-8.1,45.301l-18.301,88.801
			h-54.601L74.252,220.75z"/>
	</g>
</g>
</svg>
