<?xml version="1.0" encoding="utf-8"?>
<!-- Generator: Adobe Illustrator 16.0.3, SVG Export Plug-In . SVG Version: 6.00 Build 0)  -->
<!DOCTYPE svg PUBLIC "-//W3C//DTD SVG 1.1//EN" "http://www.w3.org/Graphics/SVG/1.1/DTD/svg11.dtd">
<svg version="1.1" id="Layer_1" xmlns="http://www.w3.org/2000/svg" xmlns:xlink="http://www.w3.org/1999/xlink" x="0px" y="0px"
	 width="512px" height="512px" viewBox="0 0 512 512" enable-background="new 0 0 512 512" xml:space="preserve">
<g id="page_style_2">
	<path fill="#00A0DB" d="M384.244,128.242h-0.021l0.01-0.01l-127.947-128h-0.053H32.456L32.228,0h-0.001c-17.673,0-32,14.328-32,32
		c0,0.078,0.006,0.154,0.006,0.232v-0.229l0.229,0.232H0.238L0.236,480.23H0v0.002c0,17.672,14.328,32,32,32
		c0.078,0,0.154-0.006,0.232-0.006h-0.229L32.233,512v0.232h319.884v0.119h0.002c17.672,0,32-14.328,32-32
		c0-0.037-0.002-0.074-0.004-0.109h0.127L384.244,128.242z M32.233,480.463l-0.229-0.227h0.229V480.463z"/>
	<g>
		<path fill="#1C75BC" d="M288.199,128.303h0.229c-0.078,0-0.154,0.006-0.232,0.006c-17.672,0-32-14.328-32-32v-0.002l0.049-0.072
			V0.232h0.053l127.947,128l-0.01,0.01h-95.978L288.199,128.303z"/>
	</g>
</g>
<g id="icons_copy">
	<g>
		<path fill="#FFFFFF" d="M308.912,260.553c-3.262-2.059-36.563-23.757-43.613-23.757h-16.411v-28.444H129.641v28.444h-16.41
			c-7.051,0-35.07,21.419-38.138,23.757C64.461,268.656,64,280.867,64,286.072v50.21c0,7.052,7.052,15.385,14.104,15.385h26.922
			l-16.41,70.017h209.504l-16.41-70.017h24.188c7.051,0,14.103-8.333,14.103-15.385v-50.274
			C319.999,280.805,319.999,267.552,308.912,260.553z M121.436,397.068l16.41-82.051h111.042l16.411,82.051H121.436z
			 M285.812,306.813c-6.798,0-12.307-5.51-12.307-12.308s5.509-12.308,12.307-12.308c6.797,0,12.308,5.51,12.308,12.308
			S292.608,306.813,285.812,306.813z"/>
	</g>
</g>
</svg>
