<?xml version="1.0" encoding="utf-8"?>
<!-- Generator: Adobe Illustrator 16.0.3, SVG Export Plug-In . SVG Version: 6.00 Build 0)  -->
<!DOCTYPE svg PUBLIC "-//W3C//DTD SVG 1.1//EN" "http://www.w3.org/Graphics/SVG/1.1/DTD/svg11.dtd">
<svg version="1.1" id="Layer_1" xmlns="http://www.w3.org/2000/svg" xmlns:xlink="http://www.w3.org/1999/xlink" x="0px" y="0px"
	 width="512px" height="512px" viewBox="0 0 512 512" enable-background="new 0 0 512 512" xml:space="preserve">
<g id="page_style_2">
	<path fill="#00A0DB" d="M384.244,128.241h-0.021l0.01-0.01l-127.947-128h-0.053H32.456L32.228,0h-0.001c-17.673,0-32,14.327-32,32
		c0,0.078,0.006,0.154,0.006,0.231v-0.228l0.229,0.231H0.238L0.236,480.229H0v0.002c0,17.672,14.328,32,32,32
		c0.078,0,0.154-0.006,0.232-0.006h-0.229l0.229-0.227v0.232h319.884v0.119h0.002c17.672,0,32-14.328,32-32
		c0-0.037-0.002-0.073-0.003-0.109h0.126L384.244,128.241z M32.233,480.462l-0.229-0.227h0.229V480.462z"/>
	<g>
		<path fill="#1C75BC" d="M288.199,128.302h0.229c-0.078,0-0.154,0.006-0.232,0.006c-17.672,0-32-14.328-32-32v-0.002l0.049-0.071
			V0.231h0.053l127.947,128l-0.01,0.01h-95.978L288.199,128.302z"/>
	</g>
</g>
<g id="icons_copy">
	<path fill="#FFFFFF" d="M299.086,369.227c-13.473,21.77-56.42,37.684-107.363,37.684c-50.914,0-93.895-15.914-107.352-37.684
		c-2.855-4.611-4.371-2.139-4.371,0.145c0,2.298,0,31.954,0,31.954c0,30.945,50.018,63.025,111.723,63.025
		c61.701,0,111.721-32.08,111.721-63.025c0,0,0-29.656,0-31.954C303.443,367.088,301.91,364.615,299.086,369.227z M299.248,287.59
		c-13.232,19.248-56.373,33.357-107.525,33.357S97.428,306.838,84.197,287.59c-2.746-3.972-4.197-1.818-4.197-0.016
		c0,1.804,0,37.604,0,37.604c0,28.137,50.018,50.93,111.723,50.93c61.701,0,111.721-22.793,111.721-50.93c0,0,0-35.8,0-37.604
		C303.443,285.771,301.977,283.618,299.248,287.59z M191.723,183.449C130.018,183.449,80,202.251,80,225.457v20.095
		c0,24.61,50.018,44.56,111.723,44.56c61.701,0,111.721-19.949,111.721-44.56v-20.08
		C303.443,202.251,253.424,183.449,191.723,183.449z"/>
</g>
</svg>
