<?xml version="1.0" encoding="utf-8"?>
<!-- Generator: Adobe Illustrator 16.0.3, SVG Export Plug-In . SVG Version: 6.00 Build 0)  -->
<!DOCTYPE svg PUBLIC "-//W3C//DTD SVG 1.1//EN" "http://www.w3.org/Graphics/SVG/1.1/DTD/svg11.dtd">
<svg version="1.1" id="Layer_1" xmlns="http://www.w3.org/2000/svg" xmlns:xlink="http://www.w3.org/1999/xlink" x="0px" y="0px"
	 width="512px" height="512px" viewBox="0 0 512 512" enable-background="new 0 0 512 512" xml:space="preserve">
<g id="page_style_2">
	<path fill="#00A0DB" d="M384.244,128.242h-0.021l0.01-0.01l-127.947-128h-0.053H32.456L32.228,0h-0.001c-17.673,0-32,14.328-32,32
		c0,0.078,0.006,0.154,0.006,0.232v-0.229l0.229,0.232H0.238L0.236,480.23H0v0.002c0,17.672,14.328,32,32,32
		c0.078,0,0.154-0.006,0.232-0.006h-0.229L32.233,512v0.232h319.884v0.119h0.002c17.672,0,32-14.328,32-32
		c0-0.037-0.002-0.074-0.003-0.109h0.126L384.244,128.242z M32.233,480.463l-0.229-0.227h0.229V480.463z"/>
	<g>
		<path fill="#1C75BC" d="M288.199,128.303h0.229c-0.078,0-0.154,0.006-0.232,0.006c-17.672,0-32-14.328-32-32v-0.002l0.049-0.072
			V0.232h0.053l127.947,128l-0.01,0.01h-95.978L288.199,128.303z"/>
	</g>
</g>
<g id="icons_copy">
	<path fill="#FFFFFF" d="M220.258,256.352c-0.659,0-1.315,0.012-1.971,0.025v-64.025H64v154.287h64.025
		c-0.014,0.655-0.025,1.312-0.025,1.97c0,50.953,41.305,92.258,92.258,92.258c50.952,0,92.256-41.305,92.256-92.258
		C312.514,297.657,271.21,256.352,220.258,256.352z M220.258,416.866c-37.638,0-68.258-30.62-68.258-68.258
		c0-0.661,0.031-1.313,0.05-1.97h66.237v-66.237c0.656-0.019,1.31-0.05,1.971-0.05c37.637,0,68.256,30.62,68.256,68.257
		C288.514,386.246,257.895,416.866,220.258,416.866z"/>
</g>
</svg>
