<?xml version="1.0" encoding="utf-8"?>
<!-- Generator: Adobe Illustrator 16.0.3, SVG Export Plug-In . SVG Version: 6.00 Build 0)  -->
<!DOCTYPE svg PUBLIC "-//W3C//DTD SVG 1.1//EN" "http://www.w3.org/Graphics/SVG/1.1/DTD/svg11.dtd">
<svg version="1.1" id="Layer_1" xmlns="http://www.w3.org/2000/svg" xmlns:xlink="http://www.w3.org/1999/xlink" x="0px" y="0px"
	 width="512px" height="512px" viewBox="0 0 512 512" enable-background="new 0 0 512 512" xml:space="preserve">
<g id="page_style_2">
	<path fill="#00A0DB" d="M384.244,128.242h-0.021l0.01-0.01l-127.947-128h-0.053H32.456L32.228,0h-0.001c-17.673,0-32,14.328-32,32
		c0,0.078,0.006,0.154,0.006,0.232v-0.229l0.229,0.232H0.238L0.236,480.23H0v0.002c0,17.672,14.328,32,32,32
		c0.078,0,0.154-0.006,0.232-0.006h-0.229L32.233,512v0.232h319.884v0.119h0.002c17.672,0,32-14.328,32-32
		c0-0.037-0.002-0.074-0.003-0.109h0.126L384.244,128.242z M32.233,480.463l-0.229-0.227h0.229V480.463z"/>
	<g>
		<path fill="#1C75BC" d="M288.199,128.303h0.229c-0.078,0-0.154,0.006-0.232,0.006c-17.672,0-32-14.328-32-32v-0.002l0.049-0.072
			V0.232h0.053l127.947,128l-0.01,0.01h-95.978L288.199,128.303z"/>
	</g>
</g>
<g id="icons_copy">
	<path fill="#FFFFFF" d="M267.731,220.139l-109.38-56.377c-14.98-7.896-44.521,7.354-53.006,20.773
		c-3.789,5.995-3.51,10.326-3.51,12.776L101.7,392.22c0.091,2.701,3.494,6.354,6.409,8.138
		c6.068,3.725,99.446,61.094,102.053,62.716c1.4,0.877,3.053,1.278,4.687,1.278c1.392,0,2.786-0.308,4.05-0.936
		c2.764-1.356,4.482-3.992,4.482-6.856V255.244c0-2.781-1.624-5.354-4.268-6.746L119.693,193c1.125-2.184,5.551-6.809,13.68-11.065
		c8.564-4.481,14.98-2.79,16.451-2.22c0,0,95.41,51.06,98.332,52.581c2.904,1.513,2.963,1.742,2.963,4.339
		c0,2.596,0,194.485,0,194.485c0,6.331,6.429,8.92,11.143,8.92c4.711,0,9.738-4.618,9.738-8.92V226.888
		C272,224.105,270.367,221.529,267.731,220.139z"/>
</g>
</svg>
