<?xml version="1.0" encoding="utf-8"?>
<!-- Generator: Adobe Illustrator 16.0.3, SVG Export Plug-In . SVG Version: 6.00 Build 0)  -->
<!DOCTYPE svg PUBLIC "-//W3C//DTD SVG 1.1//EN" "http://www.w3.org/Graphics/SVG/1.1/DTD/svg11.dtd">
<svg version="1.1" id="Layer_1" xmlns="http://www.w3.org/2000/svg" xmlns:xlink="http://www.w3.org/1999/xlink" x="0px" y="0px"
	 width="384.051px" height="512.351px" viewBox="0 0 384.051 512.351" enable-background="new 0 0 384.051 512.351"
	 xml:space="preserve">
<g>
	<path fill="#00A0DB" d="M384.244,128.241h-0.021l0.01-0.01l-127.947-128h-0.053H32.456L32.228,0h-0.001c-17.673,0-32,14.327-32,32
		c0,0.078,0.006,0.154,0.006,0.231v-0.228l0.229,0.231H0.238L0.236,480.229H0v0.002c0,17.672,14.328,32,32,32
		c0.078,0,0.154-0.006,0.232-0.006h-0.229l0.229-0.227v0.232h319.884v0.119h0.002c17.672,0,32-14.328,32-32
		c0-0.037-0.002-0.073-0.004-0.109h0.127L384.244,128.241z M32.233,480.462l-0.229-0.227h0.229V480.462z"/>
	<g>
		<path fill="#231F20" d="M288.2,128.302h0.229c-0.078,0-0.154,0.006-0.232,0.006c-17.672,0-32-14.328-32-32v-0.002l0.049-0.071
			V0.231h0.053l127.947,128l-0.01,0.01h-95.978L288.2,128.302z"/>
	</g>
</g>
<g>
	<path fill="#0F5FBD" d="M288.233,128.421L288.233,128.421 M256.102,0.351h-0.053v96.004L256,96.425v0.002
		c0,17.672,14.33,32,32.002,32l0.23-0.006h-0.229l0.059-0.061h95.978l0.01-0.01L256.102,0.351"/>
</g>
<path fill="#FFFFFF" d="M318.027,412.115c-7.441,12.026-31.169,20.818-59.315,20.818c-28.128,0-51.873-8.792-59.306-20.818
	c-1.58-2.549-2.416-1.183-2.416,0.08c0,1.269,0,17.652,0,17.652c0,17.096,27.633,34.82,61.722,34.82
	c34.088,0,61.721-17.725,61.721-34.82c0,0,0-16.384,0-17.652C320.434,410.933,319.588,409.566,318.027,412.115z M318.115,367.014
	c-7.309,10.634-31.143,18.429-59.403,18.429s-52.094-7.795-59.403-18.429c-1.516-2.195-2.318-1.005-2.318-0.009
	c0,0.997,0,20.774,0,20.774c0,15.545,27.633,28.136,61.722,28.136c34.088,0,61.721-12.591,61.721-28.136c0,0,0-19.777,0-20.774
	C320.434,366.009,319.623,364.818,318.115,367.014z M258.712,309.48c-34.089,0-61.722,10.388-61.722,23.207v11.102
	c0,13.596,27.633,24.618,61.722,24.618c34.088,0,61.721-11.022,61.721-24.618v-11.093C320.434,319.868,292.8,309.48,258.712,309.48z
	"/>
<g>
	<path fill="#FFFFFF" d="M299.225,274.918v-11.516h0.004v-80.639h-0.004v-0.004H68.831v23.039h0.002v207.359h23.04v-0.002h46.079
		v0.002h23.04v-138.24H299.225z M207.07,251.877h-46.079v-46.078h46.079V251.877z M230.11,205.799h46.078v46.078H230.11V205.799z
		 M137.952,205.799v46.078H91.873v-46.078H137.952z M91.873,390.117v-46.08h46.079v46.08H91.873z M137.952,320.997H91.873v-46.079
		h46.079V320.997z"/>
</g>
</svg>
