<?xml version="1.0" encoding="utf-8"?>
<!-- Generator: Adobe Illustrator 16.0.3, SVG Export Plug-In . SVG Version: 6.00 Build 0)  -->
<!DOCTYPE svg PUBLIC "-//W3C//DTD SVG 1.1//EN" "http://www.w3.org/Graphics/SVG/1.1/DTD/svg11.dtd">
<svg version="1.1" id="Layer_1" xmlns="http://www.w3.org/2000/svg" xmlns:xlink="http://www.w3.org/1999/xlink" x="0px" y="0px"
	 width="512px" height="512px" viewBox="0 0 512 512" enable-background="new 0 0 512 512" xml:space="preserve">
<g id="page_style_2">
	<path fill="#D1D3D4" d="M384.244,128.241h-0.021l0.01-0.01l-127.947-128h-0.053H32.456L32.228,0h-0.001c-17.673,0-32,14.327-32,32
		c0,0.078,0.006,0.154,0.006,0.231v-0.228l0.229,0.231H0.238L0.236,480.229H0v0.002c0,17.672,14.328,32,32,32
		c0.078,0,0.154-0.006,0.232-0.006h-0.229l0.229-0.227v0.232h319.884v0.119h0.002c17.672,0,32-14.328,32-32
		c0-0.037-0.002-0.073-0.003-0.109h0.126L384.244,128.241z M32.233,480.462l-0.229-0.227h0.229V480.462z"/>
	<path fill="#B7B7B7" d="M288.199,128.302h0.229c-0.078,0-0.154,0.006-0.232,0.006c-17.672,0-32-14.328-32-32v-0.002l0.049-0.071
		V0.231h0.053l127.947,128l-0.01,0.01h-95.978L288.199,128.302z"/>
</g>
<g id="icons_copy">
	<rect x="64" y="240.351" fill="#94B700" width="432" height="192"/>
	<path fill="#B7B7B7" d="M192,128.351H64v-32h128V128.351z"/>
	<path fill="#B7B7B7" d="M160,192.351H64v-32h96V192.351z"/>
	<g>
		<path fill="#FFFFFF" d="M106.78,293.071h20.579v35.14h31.5v-35.14h20.721v91.279h-20.721v-38.08h-31.5v38.08H106.78V293.071z"/>
		<path fill="#FFFFFF" d="M218.919,310.431h-25.06v-17.359h70.84v17.359h-25.061v73.92h-20.72V310.431z"/>
		<path fill="#FFFFFF" d="M278.979,293.071h21.84l15.26,41.02l5.46,15.96h0.56l5.46-15.96l14.84-41.02h21.7v91.279h-19.18v-33.46
			c0-8.96,1.68-22.26,2.66-31.08h-0.561l-7.56,21.141l-14,35.42h-8.26l-14-35.42l-7.28-21.141h-0.56
			c0.979,8.82,2.52,22.12,2.52,31.08v33.46h-18.899V293.071z"/>
	</g>
</g>
</svg>
