<?xml version="1.0" encoding="utf-8"?>
<!-- Generator: Adobe Illustrator 16.0.3, SVG Export Plug-In . SVG Version: 6.00 Build 0)  -->
<!DOCTYPE svg PUBLIC "-//W3C//DTD SVG 1.1//EN" "http://www.w3.org/Graphics/SVG/1.1/DTD/svg11.dtd">
<svg version="1.1" id="Layer_1" xmlns="http://www.w3.org/2000/svg" xmlns:xlink="http://www.w3.org/1999/xlink" x="0px" y="0px"
	 width="512px" height="512px" viewBox="0 0 512 512" enable-background="new 0 0 512 512" xml:space="preserve">
<g id="page_style_2">
	<path fill="#00A0DB" d="M384.244,128.241h-0.021l0.01-0.01l-127.947-128h-0.053H32.456L32.228,0h-0.001c-17.673,0-32,14.327-32,32
		c0,0.078,0.006,0.154,0.006,0.231v-0.228l0.229,0.231H0.238L0.236,480.229H0v0.002c0,17.672,14.328,32,32,32
		c0.078,0,0.154-0.006,0.232-0.006h-0.229l0.229-0.227v0.232h319.884v0.119h0.002c17.672,0,32-14.328,32-32
		c0-0.037-0.002-0.073-0.003-0.109h0.126L384.244,128.241z M32.233,480.462l-0.229-0.227h0.229V480.462z"/>
	<g>
		<path fill="#1C75BC" d="M288.199,128.302h0.229c-0.078,0-0.154,0.006-0.232,0.006c-17.672,0-32-14.328-32-32v-0.002l0.049-0.071
			V0.231h0.053l127.947,128l-0.01,0.01h-95.978L288.199,128.302z"/>
	</g>
</g>
<g id="icons_copy">
	<g>
		<rect x="128" y="240.351" fill="#FFFFFF" width="48" height="32"/>
		<rect x="208" y="240.351" fill="#FFFFFF" width="48" height="32"/>
		<rect x="128" y="304.351" fill="#FFFFFF" width="48" height="32"/>
		<rect x="208" y="304.351" fill="#FFFFFF" width="48" height="32"/>
		<rect x="128" y="368.351" fill="#FFFFFF" width="48" height="32"/>
		<rect x="208" y="368.351" fill="#FFFFFF" width="48" height="32"/>
		<path fill="#FFFFFF" d="M288.412,176.351H95.587C78.214,176.351,64,190.565,64,207.938v224.413
			c0,17.373,14.214,31.588,31.587,31.588h192.825c17.373,0,31.588-14.215,31.588-31.588V207.938
			C320,190.565,305.785,176.351,288.412,176.351z M288,432.351H96v-224h192V432.351z"/>
	</g>
</g>
</svg>
