<?xml version="1.0" encoding="utf-8"?>
<!-- Generator: Adobe Illustrator 17.0.0, SVG Export Plug-In . SVG Version: 6.00 Build 0)  -->
<!DOCTYPE svg PUBLIC "-//W3C//DTD SVG 1.1//EN" "http://www.w3.org/Graphics/SVG/1.1/DTD/svg11.dtd">
<svg version="1.1" id="Layer_1" xmlns="http://www.w3.org/2000/svg" xmlns:xlink="http://www.w3.org/1999/xlink" x="0px" y="0px"
	 width="500px" height="95px" viewBox="0 0 500 95" enable-background="new 0 0 500 95" xml:space="preserve">
<g>
	<path fill="#363636" d="M215.884,57.068c0,0-0.601,9.685-16.784,9.685c-15.511,0-20.198-11.939-20.198-21.07
		c0-9.128,4.816-20.924,21.26-20.924c14.425,0,15.019,8.975,15.019,8.975h8.237c0,0,0.08-1.655-0.722-3.646
		c-0.839-1.945-2.354-3.912-3.746-5.053c-1.433-1.113-6.341-6.027-18.68-6.027c-19.235,0-29.346,12.349-29.346,27.649
		c0,16.149,12.106,25.851,28.178,25.851c24.993,0,25.113-15.441,25.113-15.441L215.884,57.068"/>
	<polygon fill="#363636" points="279.954,20.583 227.213,20.583 227.174,26.744 250.128,26.744 250.128,71.331 257.463,71.331 
		257.463,26.744 279.954,26.744 	"/>
	<path fill="#363636" d="M380.454,52.305l-26.201,0.028l13.196-25.501L380.454,52.305z M372.048,20.583h-9.152l-27.327,50.719h8.559
		l6.837-13.092h32.69l6.83,13.122h8.845L372.048,20.583z"/>
	<path fill="#363636" d="M154.937,52.305l-26.208,0.028l13.196-25.501L154.937,52.305z M146.533,20.583h-9.192l-27.223,50.719h8.478
		l6.826-13.092h32.707l6.822,13.122h8.854L146.533,20.583z"/>
	<path fill="#363636" d="M327.584,20.607v28.817c0,3.513,0,17.438-16.343,17.438c-16.328,0-17.758-10.502-17.758-16.1
		c0-5.633-0.098-30.155-0.098-30.155h-7.549c0,0,0.101,28.29,0.101,29.888c0,1.592-0.372,8.373,4.485,14.182
		c4.873,5.807,12.762,7.921,20.748,7.921c7.952,0,15.658-3.487,17.953-6.22c2.3-2.754,6.113-6.245,6.113-15.014V20.607H327.584"/>
	<polygon fill="#363636" points="439.005,20.583 386.268,20.583 386.278,26.793 409.179,26.793 409.179,71.331 416.531,71.331 
		416.531,26.793 439.005,26.793 	"/>
	<polygon fill="#363636" points="451.452,65.583 451.452,48.14 479.57,48.14 479.57,42.419 451.452,42.419 451.452,26.341 
		483.534,26.341 483.534,20.573 443.832,20.573 443.832,71.331 484.339,71.331 484.339,65.583 	"/>
	<path fill="#363636" d="M500,67.869c0,2.7-2.091,4.782-4.836,4.782c-2.723,0-4.814-2.083-4.814-4.782
		c0-2.731,2.091-4.826,4.814-4.826C497.909,63.042,500,65.138,500,67.869 M491.069,67.869c0,2.262,1.747,4.123,4.096,4.123
		c2.337,0,4.085-1.861,4.085-4.123c0-2.338-1.747-4.142-4.085-4.142C492.816,63.727,491.069,65.531,491.069,67.869 M494.107,70.635
		h-0.692v-5.558h2.161c1.251,0,1.771,0.536,1.771,1.548c0,0.958-0.634,1.386-1.391,1.531l1.685,2.479h-0.788l-1.621-2.479h-1.124
		L494.107,70.635L494.107,70.635z M495.005,67.584c0.836,0,1.702-0.046,1.702-0.958c0-0.797-0.665-0.992-1.356-0.992h-1.242v1.95
		H495.005z"/>
</g>
<path fill="#2998FB" d="M49.822,76.872c-0.403,0-0.802-0.017-1.202-0.03l25.991-49.255l-60.512,8.251
	C16.515,18.26,31.608,4.681,49.822,4.681c19.894,0,36.081,16.192,36.081,36.1C85.903,60.681,69.716,76.872,49.822,76.872z
	 M15.686,52.418L70.7,30.473l-28.014,45.69C30.048,73.611,19.787,64.432,15.686,52.418z M49.822,0
	C28.767,0,11.442,15.982,9.299,36.49L0,37.755v20.921l11.331-4.52C15.824,67.105,26.65,77.08,40.105,80.377L31.136,95h7.9
	l7.187-13.616c1.187,0.106,2.389,0.17,3.6,0.17c22.509,0,40.758-18.255,40.758-40.775C90.579,18.254,72.331,0,49.822,0z"/>
</svg>
